<svg xmlns="http://www.w3.org/2000/svg" width="60" height="60" viewBox="0 0 60 60">
  <g id="Icon" transform="translate(-480 -1465)">
    <g id="Ellipse_1" data-name="Ellipse 1" transform="translate(480 1465)" fill="#fff" stroke="#dbe7ef" stroke-linejoin="round" stroke-width="1">
      <circle cx="30" cy="30" r="30" stroke="none"/>
      <circle cx="30" cy="30" r="29.5" fill="none"/>
    </g>
    <g id="Ellipse_1_copy" data-name="Ellipse 1 copy" transform="translate(485 1470)" fill="#fff" stroke="#dbe7ef" stroke-linejoin="round" stroke-width="1">
      <circle cx="25" cy="25" r="25" stroke="none"/>
      <circle cx="25" cy="25" r="24.5" fill="none"/>
    </g>
    <path id="Shape_360" data-name="Shape 360" d="M515.714,1486H504.286a2.275,2.275,0,0,0-2.286,2.25v13.5a2.275,2.275,0,0,0,2.286,2.25h11.428a2.275,2.275,0,0,0,2.286-2.25v-13.5A2.275,2.275,0,0,0,515.714,1486ZM510,1503.438a1.125,1.125,0,1,1,1.142-1.125A1.134,1.134,0,0,1,510,1503.438Zm5.714-2.813H504.286V1488.25h11.428Z" fill="#a1b1bc"/>
  </g>
</svg>
