<svg xmlns="http://www.w3.org/2000/svg" width="24" height="24" viewBox="0 0 24 24">
  <path id="skype" d="M776.248,9621.594a10.668,10.668,0,0,0,.133-1.595,10.462,10.462,0,0,0-10.7-10.418,10.688,10.688,0,0,0-1.621.135,6.35,6.35,0,0,0-3.961-1.746,6.093,6.093,0,0,0-4.871,9.763,10.749,10.749,0,0,0-.246,2.267,10.94,10.94,0,0,0,10.7,10.979,10.8,10.8,0,0,0,2.214-.232,5.86,5.86,0,0,0,4,1.224,6.1,6.1,0,0,0,4.349-10.376Zm-5.574,3.313a4.12,4.12,0,0,1-1.85,1.405,7.414,7.414,0,0,1-2.887.51,6.975,6.975,0,0,1-3.3-.694,4.259,4.259,0,0,1-1.5-1.336,2.866,2.866,0,0,1-.576-1.624,1.037,1.037,0,0,1,.346-.783,1.228,1.228,0,0,1,.881-.328,1.079,1.079,0,0,1,.733.257,1.944,1.944,0,0,1,.512.753,4.855,4.855,0,0,0,.559.992,2.218,2.218,0,0,0,.843.657,3.383,3.383,0,0,0,1.43.26,3.427,3.427,0,0,0,1.979-.522,1.54,1.54,0,0,0,.762-1.3,1.313,1.313,0,0,0-.411-1,2.709,2.709,0,0,0-1.062-.59q-.65-.2-1.739-.433a13.569,13.569,0,0,1-2.439-.732,3.922,3.922,0,0,1-1.559-1.145,2.808,2.808,0,0,1-.576-1.8,2.917,2.917,0,0,1,.609-1.823,3.809,3.809,0,0,1,1.762-1.226,7.767,7.767,0,0,1,2.712-.428,7.286,7.286,0,0,1,2.154.283,4.707,4.707,0,0,1,1.507.755,3.223,3.223,0,0,1,.877.988,2.131,2.131,0,0,1,.277,1.007,1.206,1.206,0,0,1-1.208,1.173,1.044,1.044,0,0,1-.715-.217,2.873,2.873,0,0,1-.53-.707,3.238,3.238,0,0,0-.886-1.1,2.762,2.762,0,0,0-1.661-.395,3.06,3.06,0,0,0-1.71.428,1.226,1.226,0,0,0-.651,1.031.986.986,0,0,0,.222.644,1.793,1.793,0,0,0,.609.466,4.353,4.353,0,0,0,.783.307q.4.108,1.311.32,1.143.248,2.07.545a6.633,6.633,0,0,1,1.578.718,3.063,3.063,0,0,1,1.015,1.075,3.2,3.2,0,0,1,.365,1.59A3.446,3.446,0,0,1,770.675,9624.907Z" transform="translate(-754 -9607.97)" fill="#fff"/>
</svg>
