<svg xmlns="http://www.w3.org/2000/svg" width="24" height="24" viewBox="0 0 24 24">
  <path id="pinterest" d="M718,9607.97a12,12,0,0,0-4.751,23.023,10.639,10.639,0,0,1,.211-2.738c.232-.976,1.551-6.562,1.551-6.562a4.633,4.633,0,0,1-.385-1.907c0-1.781,1.035-3.116,2.322-3.116a1.615,1.615,0,0,1,1.625,1.81,25.782,25.782,0,0,1-1.064,4.271,1.867,1.867,0,0,0,1.9,2.322c2.28,0,3.816-2.932,3.816-6.406,0-2.637-1.775-4.614-5.01-4.614a5.705,5.705,0,0,0-5.931,5.769,3.469,3.469,0,0,0,.8,2.361.585.585,0,0,1,.172.673c-.059.22-.189.754-.244.967a.415.415,0,0,1-.6.3c-1.682-.686-2.467-2.528-2.467-4.6,0-3.423,2.886-7.524,8.607-7.524,4.6,0,7.625,3.328,7.625,6.9,0,4.728-2.627,8.256-6.5,8.256a3.454,3.454,0,0,1-2.941-1.5s-.7,2.772-.848,3.309a10.121,10.121,0,0,1-1.191,2.551A12,12,0,1,0,718,9607.97Z" transform="translate(-706 -9607.97)" fill="#fff"/>
</svg>
