<svg xmlns="http://www.w3.org/2000/svg" width="24" height="24" viewBox="0 0 24 24">
  <path id="dribbble" d="M622,9608a12,12,0,1,0,12,12A12,12,0,0,0,622,9608Zm7.875,5.809a9.977,9.977,0,0,1,2.142,5.91,21.343,21.343,0,0,0-7.021-.17c-.254-.58-.517-1.148-.784-1.7A14.488,14.488,0,0,0,629.875,9613.81Zm-1.381-1.435a12.659,12.659,0,0,1-5.194,3.7,51.4,51.4,0,0,0-3.661-5.812,9.994,9.994,0,0,1,8.855,2.113Zm-10.8-1.424a49.359,49.359,0,0,1,3.707,5.758,35.424,35.424,0,0,1-9.152.991A10.068,10.068,0,0,1,617.691,9610.951Zm-5.714,9.05c0-.108,0-.216.008-.323h.054a36.9,36.9,0,0,0,10.3-1.171q.356.724.7,1.486a15.635,15.635,0,0,0-8.578,6.6A9.981,9.981,0,0,1,611.977,9620Zm3.94,7.96a13.76,13.76,0,0,1,7.887-6.13,34.187,34.187,0,0,1,2.014,7.436,9.991,9.991,0,0,1-9.9-1.306Zm11.745.307a36.422,36.422,0,0,0-1.892-6.825,19.861,19.861,0,0,1,6.106.259A10.045,10.045,0,0,1,627.662,9628.268Z" transform="translate(-610 -9608.001)" fill="#fff"/>
</svg>
